<?xml version="1.0" encoding="UTF-8"?>
<svg id="Layer_1" data-name="Layer 1" xmlns="http://www.w3.org/2000/svg" viewBox="0 0 261.92 38.92">
  <defs>
    <style>
      .cls-1 {
        fill: #567c38;
      }

      .cls-2 {
        fill: gray;
      }

      .cls-3 {
        fill: #c4d945;
      }

      .cls-4 {
        fill: #6cad44;
      }
    </style>
  </defs>
  <g id="Group_7466" data-name="Group 7466">
    <g id="Group_7464" data-name="Group 7464">
      <path id="Path_27543" data-name="Path 27543" class="cls-2" d="M59.34,8.02c0,.28-.08.55-.23.79-.11.22-.27.41-.46.56-.25-.27-.52-.51-.81-.73-.43-.33-.89-.6-1.38-.83-.64-.29-1.3-.53-1.97-.7-.84-.21-1.71-.31-2.58-.3-3.84,0-5.77,1.41-5.77,4.24-.02.58.1,1.16.33,1.69.22.46.55.86.95,1.18.46.35.97.62,1.51.81.65.24,1.31.42,1.99.56l3.43.73c1.68.27,3.25,1,4.54,2.12,1.03,1.08,1.57,2.55,1.48,4.04,0,.9-.16,1.79-.49,2.63-.32.8-.84,1.51-1.5,2.07-.75.62-1.61,1.08-2.54,1.36-1.16.35-2.36.52-3.57.5-.97,0-1.94-.08-2.9-.26-.81-.16-1.6-.38-2.36-.68-.63-.24-1.25-.54-1.83-.88-.45-.26-.88-.55-1.3-.86l.98-1.79c.29.22.66.47,1.11.76.51.32,1.05.6,1.61.83.68.28,1.38.5,2.1.66.86.19,1.73.27,2.61.26,1.52.08,3.03-.29,4.34-1.08,1.07-.77,1.67-2.04,1.57-3.36.02-.66-.11-1.32-.38-1.92-.23-.49-.58-.91-1.02-1.23-.46-.32-.97-.57-1.51-.73-.58-.18-1.18-.33-1.82-.46l-3.4-.66c-.81-.14-1.61-.38-2.36-.71-.7-.3-1.34-.71-1.9-1.23-.54-.5-.98-1.11-1.28-1.79-.33-.76-.49-1.58-.47-2.4,0-.83.13-1.65.4-2.43.28-.77.74-1.47,1.34-2.02.7-.63,1.53-1.1,2.42-1.39,1.18-.37,2.41-.54,3.64-.51.93-.01,1.85.06,2.77.21.68.11,1.34.29,1.99.51.45.16.89.36,1.3.61.25.16.49.33.72.51.22.19.41.41.56.66.09.2.14.41.14.63Z"/>
      <path id="Path_27544" data-name="Path 27544" class="cls-2" d="M64.78,21.43c.11,1.49.77,2.9,1.85,3.94,1.12.96,2.56,1.46,4.04,1.39.86.02,1.71-.14,2.49-.48.54-.24,1.07-.53,1.57-.84l.84,1.59c-.15.11-.39.26-.69.45-.36.21-.73.4-1.12.55-.49.19-.99.34-1.5.45-.61.13-1.23.19-1.85.18-1.02,0-2.03-.18-2.98-.55-.92-.36-1.76-.9-2.45-1.61-.73-.75-1.29-1.64-1.66-2.62-.42-1.15-.63-2.38-.61-3.61-.02-1.23.18-2.46.58-3.63.35-1.03.9-1.99,1.61-2.81.68-.78,1.52-1.4,2.46-1.82.98-.44,2.05-.66,3.13-.65.86-.02,1.71.11,2.52.38.67.23,1.28.59,1.8,1.08.48.46.85,1.02,1.08,1.64.24.65.37,1.34.36,2.04,0,.69-.12,1.37-.39,2-.29.64-.75,1.19-1.32,1.59-.76.51-1.61.87-2.51,1.06-1.3.28-2.63.41-3.96.38-.62,0-1.18,0-1.69-.02s-1.04-.04-1.6-.08ZM64.72,19.71c.52.04,1.02.07,1.51.08s1,.02,1.54.02c1.08.02,2.16-.07,3.23-.28.7-.13,1.38-.39,2-.74.44-.26.8-.64,1.03-1.1.19-.42.29-.87.29-1.32.02-.54-.1-1.07-.33-1.56-.21-.41-.52-.75-.89-1.01-.39-.26-.82-.44-1.27-.55-.48-.11-.96-.17-1.45-.16-.83-.02-1.65.17-2.39.55-.68.36-1.28.86-1.74,1.47-.48.64-.86,1.36-1.1,2.12-.26.8-.4,1.64-.41,2.49h0Z"/>
      <path id="Path_27545" data-name="Path 27545" class="cls-2" d="M78.92,4.9c-.01-.29.08-.58.25-.81.2-.22.49-.34.79-.31.17,0,.34.03.5.08.12.04.25.09.36.15v24.17h-1.9V4.9Z"/>
      <path id="Path_27546" data-name="Path 27546" class="cls-2" d="M84.53,4.9c-.01-.29.07-.58.25-.81.2-.22.49-.34.79-.31.17,0,.34.03.5.08.12.04.24.09.36.15v24.17h-1.9V4.9Z"/>
      <path id="Path_27547" data-name="Path 27547" class="cls-2" d="M92.5,6.03c0,.42-.14.83-.42,1.14-.24.3-.61.48-1,.48-.38,0-.75-.18-.98-.48-.27-.32-.41-.73-.4-1.14-.01-.41.13-.81.4-1.13.24-.29.6-.47.98-.46.38,0,.75.17,1,.46.28.31.43.71.42,1.13ZM90.16,12.95c-.01-.29.07-.58.25-.81.2-.22.49-.34.79-.31.17,0,.34.03.5.08.12.04.25.09.36.15v16.12h-1.9v-15.23Z"/>
      <path id="Path_27548" data-name="Path 27548" class="cls-2" d="M107.09,28.18v-9.14c.09-1.52-.33-3.02-1.2-4.27-.89-1.06-2.24-1.62-3.62-1.52-1.38-.1-2.72.46-3.6,1.52-.86,1.25-1.27,2.76-1.18,4.27v9.14h-1.9v-9.8c-.01-.97.15-1.93.46-2.85.28-.82.74-1.58,1.32-2.22.59-.63,1.3-1.12,2.1-1.44.89-.35,1.84-.53,2.8-.51.96-.01,1.92.16,2.81.51.8.32,1.53.81,2.12,1.44.59.64,1.04,1.4,1.33,2.22.32.92.47,1.88.46,2.85v9.8h-1.91Z"/>
      <path id="Path_27549" data-name="Path 27549" class="cls-2" d="M126.93,25.37c.03,1.53-.17,3.05-.61,4.52-.33,1.12-.91,2.16-1.69,3.03-.71.76-1.59,1.34-2.57,1.69-1.03.36-2.12.54-3.21.53-1.18.04-2.35-.1-3.49-.41-.64-.19-1.26-.42-1.87-.68l.52-1.79c.11.04.3.13.56.25.32.14.65.26,1,.35.4.11.86.21,1.38.3.56.09,1.13.14,1.7.13.73,0,1.45-.09,2.16-.25.76-.17,1.47-.52,2.06-1.03.69-.61,1.22-1.37,1.56-2.22.46-1.23.67-2.54.62-3.86v-.8c-.54,1.06-1.35,1.97-2.35,2.62-1,.61-2.16.92-3.33.9-1.1.02-2.2-.21-3.2-.66-.92-.43-1.74-1.05-2.38-1.84-.66-.82-1.16-1.75-1.48-2.75-.35-1.1-.53-2.25-.52-3.4,0-1.14.18-2.28.56-3.36.35-1.01.88-1.94,1.57-2.75.67-.78,1.49-1.41,2.41-1.85.97-.46,2.03-.69,3.1-.68.92,0,1.82.15,2.68.48.81.31,1.56.78,2.19,1.38.66.63,1.19,1.37,1.59,2.19.44.92.74,1.9.89,2.91.04.31.07.67.1,1.08s.04.88.04,1.41v4.57ZM113.85,20c0,.93.12,1.86.39,2.75.23.78.61,1.52,1.13,2.15.48.59,1.08,1.06,1.76,1.39.73.34,1.52.51,2.32.5.8.01,1.58-.17,2.29-.53.68-.35,1.28-.84,1.76-1.44.51-.64.89-1.37,1.12-2.15.27-.88.4-1.79.39-2.7.01-.91-.12-1.81-.4-2.68-.24-.77-.62-1.49-1.12-2.12-.48-.59-1.08-1.07-1.76-1.41-.71-.35-1.49-.52-2.28-.51-.81-.01-1.6.17-2.32.53-.68.35-1.28.84-1.76,1.44-.51.64-.89,1.37-1.12,2.15-.26.85-.4,1.74-.39,2.63h0Z"/>
      <path id="Path_27550" data-name="Path 27550" class="cls-2" d="M130.8,22.98c.3.24.62.45.95.65.5.29,1.03.55,1.57.76.69.27,1.4.49,2.13.65.86.18,1.73.27,2.61.26,1.26.11,2.51-.19,3.59-.84.73-.58,1.13-1.47,1.08-2.4.01-.44-.07-.88-.24-1.29-.17-.36-.41-.67-.72-.91-.35-.27-.74-.48-1.15-.61-.5-.17-1.02-.3-1.54-.4l-3.17-.66c-.8-.15-1.58-.39-2.34-.7-.73-.29-1.4-.71-1.99-1.23-.59-.52-1.06-1.16-1.38-1.87-.37-.84-.54-1.75-.52-2.66,0-.9.15-1.8.45-2.65.29-.83.78-1.58,1.43-2.19.72-.66,1.56-1.16,2.48-1.47,1.17-.39,2.4-.58,3.63-.55.91,0,1.81.06,2.71.2.66.11,1.32.27,1.96.48.45.15.89.34,1.3.58.33.2.57.35.72.46.29.22.54.49.75.79.19.29.3.64.29.99,0,.5-.14.99-.4,1.41-.2.34-.45.65-.75.91-.24-.28-.52-.53-.82-.74-.43-.31-.9-.57-1.38-.78-.62-.27-1.26-.48-1.92-.63-.78-.18-1.59-.27-2.39-.27-.73-.01-1.46.06-2.18.23-.51.12-.98.34-1.4.65-.33.26-.59.6-.75.99-.16.42-.24.86-.23,1.31-.04.75.28,1.48.85,1.97.85.59,1.82.98,2.84,1.14l3.23.7c1.74.28,3.38,1.03,4.73,2.17,1.12,1.16,1.69,2.74,1.59,4.35.02.98-.17,1.96-.55,2.86-.36.84-.91,1.6-1.6,2.2-.77.65-1.66,1.14-2.62,1.42-1.17.35-2.39.52-3.62.5-1.07,0-2.13-.1-3.17-.31-.87-.18-1.73-.44-2.57-.76-.65-.25-1.28-.55-1.87-.91-.5-.31-.86-.55-1.1-.73l1.49-3.08Z"/>
      <path id="Path_27551" data-name="Path 27551" class="cls-2" d="M150.95,4.11c.55,0,1.07.24,1.41.66.39.45.59,1.03.58,1.62.02.59-.19,1.17-.58,1.62-.35.42-.87.67-1.41.66-.55,0-1.07-.24-1.41-.66-.39-.45-.59-1.03-.58-1.62-.02-.59.19-1.17.58-1.62.35-.42.87-.67,1.41-.66ZM149.31,13.31c-.05-.49.12-.98.46-1.34.37-.3.83-.44,1.3-.41.32,0,.65.05.95.15.29.1.48.17.57.21v16.26h-3.29v-14.87Z"/>
      <path id="Path_27552" data-name="Path 27552" class="cls-2" d="M155.98,17.49c-.02-.95.15-1.9.49-2.78.3-.75.75-1.43,1.34-1.99.58-.54,1.26-.95,2-1.21.81-.28,1.65-.42,2.51-.41,1.11-.02,2.21.24,3.2.76.95.52,1.73,1.3,2.25,2.25.51-.95,1.28-1.73,2.22-2.25.96-.52,2.05-.78,3.14-.76.84,0,1.68.13,2.48.4.74.25,1.42.66,1.99,1.19.58.56,1.03,1.24,1.32,1.99.34.89.51,1.83.49,2.78v10.73h-3.29v-9.44c.11-1.16-.21-2.32-.89-3.26-.63-.66-1.51-1.02-2.42-.98-.94-.02-1.84.38-2.46,1.09-.75,1.02-1.11,2.28-.99,3.54v9.04h-3.28v-9.04c.11-1.26-.24-2.52-.99-3.54-.62-.71-1.52-1.11-2.46-1.09-.91-.04-1.8.33-2.42.99-.7.94-1.03,2.11-.92,3.28v9.4h-3.29v-10.7Z"/>
      <path id="Path_27553" data-name="Path 27553" class="cls-2" d="M182.5,20.63c-.02-1.38.17-2.76.58-4.09.33-1.09.88-2.1,1.61-2.98.68-.8,1.54-1.43,2.51-1.84,1.03-.43,2.14-.64,3.26-.63,1.05-.01,2.08.22,3.03.66.92.44,1.74,1.06,2.41,1.82.71.82,1.25,1.76,1.6,2.78.39,1.13.59,2.32.58,3.51.01,1.2-.18,2.39-.56,3.53-.34,1.01-.87,1.95-1.56,2.76-.64.76-1.44,1.37-2.34,1.8-.91.44-1.91.66-2.93.65-1.02.02-2.02-.23-2.91-.73-.79-.44-1.47-1.05-1.99-1.79v8.71h-3.29v-14.17ZM190.23,25.27c.62,0,1.24-.14,1.8-.41.55-.28,1.03-.67,1.41-1.14.41-.51.71-1.1.91-1.72.22-.7.32-1.42.32-2.15,0-.71-.1-1.42-.32-2.1-.19-.62-.5-1.19-.91-1.69-.39-.47-.87-.85-1.41-1.13-.56-.28-1.18-.42-1.8-.41-.62,0-1.24.13-1.8.4-.54.26-1.02.63-1.41,1.09-.41.49-.72,1.06-.92,1.67-.23.7-.34,1.43-.33,2.17,0,.73.1,1.46.33,2.15.2.62.51,1.21.91,1.72.38.48.85.87,1.4,1.14.57.28,1.19.42,1.83.41h0Z"/>
      <path id="Path_27554" data-name="Path 27554" class="cls-2" d="M200.85,5.53c-.04-.49.13-.97.46-1.32.36-.31.83-.46,1.3-.43.32,0,.64.05.95.15.29.1.48.17.58.22v24.04h-3.29V5.53Z"/>
      <path id="Path_27555" data-name="Path 27555" class="cls-2" d="M209.29,4.11c.55,0,1.07.24,1.41.66.39.45.59,1.03.58,1.62.02.59-.19,1.17-.58,1.62-.35.42-.87.67-1.41.66-.55,0-1.07-.24-1.41-.66-.39-.45-.59-1.03-.58-1.62-.02-.59.19-1.17.58-1.62.35-.42.87-.67,1.41-.66ZM207.64,13.31c-.05-.49.12-.98.46-1.34.37-.3.83-.44,1.3-.41.32,0,.65.05.95.15.29.1.48.17.57.21v16.26h-3.29v-14.87Z"/>
      <path id="Path_27556" data-name="Path 27556" class="cls-2" d="M214.5,10.53c-.03-1.07.14-2.14.5-3.15.29-.79.76-1.5,1.37-2.09.58-.53,1.28-.93,2.03-1.16.82-.25,1.67-.37,2.52-.37,1.28-.07,2.56.14,3.75.61.7.26,1.18.92,1.21,1.67,0,.36-.09.71-.27,1.01-.15.26-.35.49-.59.68-.2-.16-.41-.29-.65-.38-.29-.13-.6-.23-.91-.31-.34-.09-.68-.16-1.02-.22-.33-.05-.66-.08-.99-.08-1-.06-1.97.29-2.71.96-.72.83-1.07,1.92-.98,3.01v.83h8.33c.51-.08,1.02.12,1.36.51.24.49.35,1.03.32,1.57v14.54h-3.26v-13.15h-6.74v13.15h-3.26V10.53Z"/>
      <path id="Path_27557" data-name="Path 27557" class="cls-2" d="M244.09,26.96c-.15.11-.39.26-.72.46-.39.23-.8.41-1.23.56-.56.19-1.12.35-1.7.46-.7.14-1.41.21-2.12.2-1.03,0-2.05-.18-3.01-.56-.93-.37-1.76-.94-2.45-1.67-.73-.78-1.29-1.71-1.66-2.71-.42-1.18-.63-2.44-.61-3.69-.01-1.23.18-2.46.59-3.62.36-1.04.92-1.99,1.64-2.81.69-.77,1.53-1.4,2.48-1.82.98-.44,2.05-.66,3.13-.65.9-.02,1.8.13,2.65.45.72.27,1.38.67,1.95,1.19.52.48.93,1.08,1.2,1.74.27.67.41,1.39.4,2.12,0,.72-.12,1.43-.38,2.1-.27.66-.73,1.22-1.32,1.62-.78.51-1.65.87-2.57,1.06-1.35.28-2.72.41-4.09.38-.38,0-.74,0-1.08-.02s-.7-.03-1.08-.05c.12,1.06.63,2.03,1.43,2.73.97.75,2.19,1.12,3.42,1.04.46,0,.93-.04,1.38-.13.39-.08.77-.19,1.14-.33.3-.11.59-.25.87-.4.24-.13.42-.23.53-.3l1.21,2.66ZM233.96,19.11c.44.02.86.03,1.27.03h1.21c.86.02,1.72-.06,2.57-.23.54-.11,1.06-.31,1.53-.6.32-.19.57-.48.72-.83.12-.31.17-.63.17-.96.05-.74-.28-1.45-.88-1.89-.64-.44-1.4-.66-2.18-.63-.65-.01-1.29.13-1.87.43-.53.28-.99.67-1.35,1.14-.38.49-.66,1.05-.85,1.64-.2.61-.31,1.25-.33,1.89Z"/>
      <path id="Path_27558" data-name="Path 27558" class="cls-2" d="M258.66,5.53c-.04-.48.12-.96.45-1.32.35-.31.82-.46,1.28-.43.32,0,.65.05.95.15.29.1.48.17.57.22v14.93c.03,1.42-.17,2.84-.59,4.21-.34,1.09-.89,2.1-1.63,2.98-.67.78-1.51,1.39-2.45,1.79-.98.41-2.03.61-3.09.6-1.08.01-2.15-.21-3.13-.66-.94-.43-1.78-1.05-2.46-1.82-.72-.81-1.27-1.76-1.63-2.78-.4-1.13-.6-2.32-.59-3.51-.01-1.2.18-2.39.56-3.53.34-1.01.87-1.96,1.56-2.78.64-.77,1.44-1.39,2.34-1.82.91-.43,1.91-.66,2.93-.65,1.03-.02,2.05.24,2.94.74.79.44,1.47,1.06,1.99,1.8V5.53ZM258.66,19.87c0-.72-.11-1.44-.33-2.12-.2-.62-.51-1.21-.91-1.72-.38-.48-.86-.87-1.4-1.14-.56-.28-1.18-.42-1.8-.41-.63-.01-1.25.13-1.82.41-.54.28-1.02.66-1.4,1.13-.41.5-.72,1.08-.91,1.7-.22.7-.32,1.42-.32,2.15,0,.72.1,1.45.32,2.14.19.62.5,1.19.91,1.69.38.47.86.85,1.4,1.12.56.28,1.19.42,1.82.41.62,0,1.24-.13,1.8-.4.54-.26,1.02-.63,1.4-1.09.4-.5.71-1.07.91-1.69.23-.7.34-1.44.33-2.18Z"/>
    </g>
    <g id="Group_7465" data-name="Group 7465">
      <path id="Path_27559" data-name="Path 27559" class="cls-1" d="M18.11.2s12.57,1.43,12.42,14.75h-8.16s3.79-4.06,2.58-8.41c-.61-2.2-2.43-5.06-6.84-6.34Z"/>
      <path id="Path_27560" data-name="Path 27560" class="cls-4" d="M22.45,13.26c.98-1.31,1.57-2.88,1.7-4.51.09-1.17-.08-2.34-.49-3.43C21.78.62,10.36-2.46,4.55,2.61c-1.6,1.46-2.72,3.37-3.21,5.48,0,0-1.65,8.47,16.26,9.41,0,0-8.48-2.11-8.56-4.33-.63-2.64.99-5.3,3.63-5.93.24-.06.48-.1.72-.12,0,0,8.9-1.58,9.05,6.14Z"/>
      <path id="Path_27561" data-name="Path 27561" class="cls-3" d="M.52,10.01s.46,7.8,17.11,8.72c0,0,19.6,1.7,11.73,20.19,0,0,3.28-10.82-14.35-12.19,0,0-18.29-2.82-14.49-16.72Z"/>
    </g>
  </g>
</svg>